<svg width="50" height="50" viewBox="0 0 50 50" fill="none" xmlns="http://www.w3.org/2000/svg">
<g id="maki:arrow">
<path id="Vector" d="M27.6433 7.64344C28.2684 7.01853 29.1161 6.66748 30 6.66748C30.8838 6.66748 31.7315 7.01853 32.3566 7.64344L47.3566 22.6434C47.9815 23.2685 48.3326 24.1162 48.3326 25.0001C48.3326 25.884 47.9815 26.7317 47.3566 27.3568L32.3566 42.3568C31.728 42.964 30.8859 43.2999 30.012 43.2923C29.138 43.2848 28.3019 42.9342 27.6839 42.3162C27.0659 41.6981 26.7153 40.8621 26.7077 39.9881C26.7001 39.1141 27.0361 38.2721 27.6433 37.6434L36.6666 28.3334H4.99996C4.1159 28.3334 3.26806 27.9822 2.64294 27.3571C2.01782 26.732 1.66663 25.8842 1.66663 25.0001C1.66663 24.116 2.01782 23.2682 2.64294 22.6431C3.26806 22.018 4.1159 21.6668 4.99996 21.6668H36.6666L27.6433 12.3568C27.0184 11.7317 26.6673 10.884 26.6673 10.0001C26.6673 9.11622 27.0184 8.26853 27.6433 7.64344Z" fill="#46B92A"/>
</g>
</svg>
